<mxfile host="65bd71144e">
    <diagram id="QLv2UeSFhcO_FHSgLAT1" name="Page-1">
        <mxGraphModel dx="454" dy="380" grid="1" gridSize="10" guides="1" tooltips="1" connect="1" arrows="1" fold="1" page="1" pageScale="1" pageWidth="827" pageHeight="1169" math="0" shadow="0">
            <root>
                <mxCell id="0"/>
                <mxCell id="1" parent="0"/>
                <mxCell id="11" style="edgeStyle=none;html=1;exitX=0.5;exitY=1;exitDx=0;exitDy=0;" edge="1" parent="1" source="2" target="5">
                    <mxGeometry relative="1" as="geometry"/>
                </mxCell>
                <mxCell id="23" style="edgeStyle=none;rounded=0;html=1;entryX=0.5;entryY=0;entryDx=0;entryDy=0;" edge="1" parent="1" target="6">
                    <mxGeometry relative="1" as="geometry">
                        <mxPoint x="250" y="130" as="sourcePoint"/>
                        <Array as="points">
                            <mxPoint x="110" y="130"/>
                        </Array>
                    </mxGeometry>
                </mxCell>
                <mxCell id="24" style="edgeStyle=none;rounded=0;html=1;entryX=0.5;entryY=0;entryDx=0;entryDy=0;" edge="1" parent="1" target="4">
                    <mxGeometry relative="1" as="geometry">
                        <mxPoint x="250" y="130" as="sourcePoint"/>
                        <Array as="points">
                            <mxPoint x="440" y="130"/>
                        </Array>
                    </mxGeometry>
                </mxCell>
                <mxCell id="2" value="polygon program&amp;nbsp;" style="whiteSpace=wrap;html=1;" vertex="1" parent="1">
                    <mxGeometry x="190" y="60" width="120" height="60" as="geometry"/>
                </mxCell>
                <mxCell id="3" value="get user side" style="whiteSpace=wrap;html=1;" vertex="1" parent="1">
                    <mxGeometry x="50" y="250" width="120" height="60" as="geometry"/>
                </mxCell>
                <mxCell id="15" style="edgeStyle=none;html=1;exitX=0.5;exitY=1;exitDx=0;exitDy=0;" edge="1" parent="1" source="4" target="10">
                    <mxGeometry relative="1" as="geometry"/>
                </mxCell>
                <mxCell id="4" value="ouput" style="whiteSpace=wrap;html=1;" vertex="1" parent="1">
                    <mxGeometry x="380" y="150" width="120" height="60" as="geometry"/>
                </mxCell>
                <mxCell id="16" style="edgeStyle=none;html=1;exitX=0.5;exitY=1;exitDx=0;exitDy=0;entryX=0.5;entryY=0;entryDx=0;entryDy=0;" edge="1" parent="1" source="5" target="14">
                    <mxGeometry relative="1" as="geometry"/>
                </mxCell>
                <mxCell id="17" style="edgeStyle=none;html=1;entryX=0.5;entryY=0;entryDx=0;entryDy=0;rounded=0;" edge="1" parent="1" target="7">
                    <mxGeometry relative="1" as="geometry">
                        <mxPoint x="250" y="320" as="sourcePoint"/>
                        <Array as="points">
                            <mxPoint x="110" y="320"/>
                        </Array>
                    </mxGeometry>
                </mxCell>
                <mxCell id="19" style="edgeStyle=none;rounded=0;html=1;entryX=0.5;entryY=0;entryDx=0;entryDy=0;" edge="1" parent="1" target="8">
                    <mxGeometry relative="1" as="geometry">
                        <mxPoint x="250" y="320" as="sourcePoint"/>
                        <Array as="points">
                            <mxPoint x="400" y="320"/>
                        </Array>
                    </mxGeometry>
                </mxCell>
                <mxCell id="21" style="edgeStyle=none;rounded=0;html=1;entryX=0.5;entryY=0;entryDx=0;entryDy=0;" edge="1" parent="1" target="9">
                    <mxGeometry relative="1" as="geometry">
                        <mxPoint x="250" y="320" as="sourcePoint"/>
                        <Array as="points">
                            <mxPoint x="550" y="320"/>
                        </Array>
                    </mxGeometry>
                </mxCell>
                <mxCell id="5" value="process" style="whiteSpace=wrap;html=1;" vertex="1" parent="1">
                    <mxGeometry x="190" y="150" width="120" height="60" as="geometry"/>
                </mxCell>
                <mxCell id="12" style="edgeStyle=none;html=1;exitX=0.5;exitY=1;exitDx=0;exitDy=0;" edge="1" parent="1" source="6" target="3">
                    <mxGeometry relative="1" as="geometry"/>
                </mxCell>
                <mxCell id="6" value="input" style="whiteSpace=wrap;html=1;" vertex="1" parent="1">
                    <mxGeometry x="50" y="150" width="120" height="60" as="geometry"/>
                </mxCell>
                <mxCell id="7" value="check if side is &amp;lt; 3" style="whiteSpace=wrap;html=1;" vertex="1" parent="1">
                    <mxGeometry x="50" y="350" width="120" height="60" as="geometry"/>
                </mxCell>
                <mxCell id="8" value="check if side is positive integer" style="whiteSpace=wrap;html=1;" vertex="1" parent="1">
                    <mxGeometry x="340" y="350" width="120" height="60" as="geometry"/>
                </mxCell>
                <mxCell id="9" value="check&amp;nbsp; what kind of polygon it is based on number of side" style="whiteSpace=wrap;html=1;" vertex="1" parent="1">
                    <mxGeometry x="490" y="350" width="120" height="60" as="geometry"/>
                </mxCell>
                <mxCell id="10" value="show answer" style="whiteSpace=wrap;html=1;" vertex="1" parent="1">
                    <mxGeometry x="380" y="240" width="120" height="60" as="geometry"/>
                </mxCell>
                <mxCell id="14" value="check if side is an integer" style="whiteSpace=wrap;html=1;" vertex="1" parent="1">
                    <mxGeometry x="190" y="350" width="120" height="60" as="geometry"/>
                </mxCell>
            </root>
        </mxGraphModel>
    </diagram>
</mxfile>